<?xml version="1.0" encoding="UTF-8"?>
<svg id="Calque_1" data-name="Calque 1" xmlns="http://www.w3.org/2000/svg" viewBox="0 0 114.76 130.7">
  <defs>
    <style>
      .cls-1 {
        fill: #fff;
        stroke-width: 0px;
      }
    </style>
  </defs>
  <path class="cls-1" d="M40.4,66.2c2.6,0,4.6-2.1,4.6-4.6v-18c0-8.1,6.6-14.6,14.6-14.6s14.6,6.6,14.6,14.6v18c0,2.6,2.1,4.6,4.6,4.6s4.6-2.1,4.6-4.6v-18c0-13.2-10.7-23.9-23.9-23.9s-23.9,10.7-23.9,23.9v18c0,2.6,2.1,4.6,4.6,4.6h.2Z"/>
  <path class="cls-1" d="M112.7,55.9h-24.5v5.8c0,5.1-4.1,9.2-9.2,9.2s-9.2-4.1-9.2-9.2v-5.8h-20v5.8c0,5.1-4.1,9.2-9.2,9.2s-9.2-4.1-9.2-9.2v-5.8H6.6c-1.3,0-2.1,1-1.8,2.2l16.2,65.9c1,3.7,4.9,6.7,8.7,6.7h60.1c3.8,0,7.7-3,8.7-6.7l16.2-65.9c.3-1.2-.5-2.2-1.8-2.2h-.2Z"/>
</svg>