<?xml version="1.0" encoding="UTF-8"?>
<svg id="Calque_1" data-name="Calque 1" xmlns="http://www.w3.org/2000/svg" viewBox="0 0 185.76 164.9">
  <defs>
    <style>
      .cls-1 {
        fill: #fff;
        stroke-width: 0px;
      }
    </style>
  </defs>
  <path class="cls-1" d="M55.5,53.9C24.8,53.9,0,78.7,0,109.4s24.8,55.5,55.5,55.5,55.5-24.8,55.5-55.5-24.8-55.5-55.5-55.5ZM55.5,75.4c10.9,0,19.7,8.8,19.7,19.7s-8.8,19.7-19.7,19.7-19.7-8.8-19.7-19.7,8.8-19.7,19.7-19.7ZM55.5,152.4c-13.1,0-24.9-6-32.8-15.3,4.2-7.9,12.4-13.4,22-13.4s1.1,0,1.6.2c2.9.9,6,1.5,9.2,1.5s6.3-.6,9.2-1.5c.5-.2,1.1-.2,1.6-.2,9.6,0,17.8,5.5,22,13.4-7.9,9.3-19.7,15.3-32.8,15.3Z"/>
</svg>