<?xml version="1.0" encoding="UTF-8"?>
<svg id="Calque_1" data-name="Calque 1" xmlns="http://www.w3.org/2000/svg" version="1.1" viewBox="0 0 496 512">
  <defs>
    <style>
      .cls-1 {
        display: none;
      }

      .cls-1, .cls-2 {
        fill: #fff;
        stroke-width: 0px;
      }
    </style>
  </defs>
  <path class="cls-1" d="M248,157.2c-30.7,0-55.5,24.8-55.5,55.5s24.8,55.5,55.5,55.5,55.5-24.8,55.5-55.5-24.8-55.5-55.5-55.5ZM248,178.7c10.9,0,19.7,8.8,19.7,19.7s-8.8,19.7-19.7,19.7-19.7-8.8-19.7-19.7,8.8-19.7,19.7-19.7ZM248,255.7c-13.1,0-24.9-6-32.8-15.3,4.2-7.9,12.4-13.4,22-13.4s1.1,0,1.6.2c2.9.9,6,1.5,9.2,1.5s6.3-.6,9.2-1.5c.5-.2,1.1-.2,1.6-.2,9.6,0,17.8,5.5,22,13.4-7.9,9.3-19.7,15.3-32.8,15.3Z"/>
  <g>
    <path class="cls-2" d="M232.9,223.4c2.6,0,4.6-2.1,4.6-4.6v-18c0-8.1,6.6-14.6,14.6-14.6s14.6,6.6,14.6,14.6v18c0,2.6,2.1,4.6,4.6,4.6s4.6-2.1,4.6-4.6v-18c0-13.2-10.7-23.9-23.9-23.9s-23.9,10.7-23.9,23.9v18c0,2.6,2.1,4.6,4.6,4.6h.2Z"/>
    <path class="cls-2" d="M305.2,213.1h-24.5v5.8c0,5.1-4.1,9.2-9.2,9.2s-9.2-4.1-9.2-9.2v-5.8h-20v5.8c0,5.1-4.1,9.2-9.2,9.2s-9.2-4.1-9.2-9.2v-5.8h-24.8c-1.3,0-2.1,1-1.8,2.2l16.2,65.9c1,3.7,4.9,6.7,8.7,6.7h60.1c3.8,0,7.7-3,8.7-6.7l16.2-65.9c.3-1.2-.5-2.2-1.8-2.2h-.2Z"/>
  </g>
</svg>